<svg width="32" height="32" viewBox="0 0 32 32" fill="none" xmlns="http://www.w3.org/2000/svg">
<path d="M16 4C16 4 7.75201 11.12 3.14267 14.976C2.99594 15.1037 2.87772 15.2609 2.79572 15.4374C2.71371 15.6138 2.66974 15.8055 2.66667 16C2.66667 16.3536 2.80715 16.6928 3.0572 16.9428C3.30724 17.1929 3.64638 17.3333 4.00001 17.3333H6.66667V26.6667C6.66667 27.0203 6.80715 27.3594 7.0572 27.6095C7.30724 27.8595 7.64638 28 8 28H12C12.3536 28 12.6928 27.8595 12.9428 27.6095C13.1929 27.3594 13.3333 27.0203 13.3333 26.6667V21.3333H18.6667V26.6667C18.6667 27.0203 18.8071 27.3594 19.0572 27.6095C19.3072 27.8595 19.6464 28 20 28H24C24.3536 28 24.6928 27.8595 24.9428 27.6095C25.1929 27.3594 25.3333 27.0203 25.3333 26.6667V17.3333H28C28.3536 17.3333 28.6928 17.1929 28.9428 16.9428C29.1929 16.6928 29.3333 16.3536 29.3333 16C29.3315 15.8018 29.2845 15.6065 29.1961 15.4291C29.1076 15.2517 28.9799 15.0968 28.8227 14.976C24.2453 11.12 16 4 16 4Z" fill="#DFDFDF"/>
</svg>
