<svg width="40" height="40" viewBox="0 0 40 40" fill="none" xmlns="http://www.w3.org/2000/svg">
<rect width="40" height="40" rx="20" fill="white"/>
<path d="M15.1999 8.57141H24.7999C28.457 8.57141 31.4284 11.5428 31.4284 15.2V24.8C31.4284 26.558 30.7301 28.244 29.487 29.4871C28.2439 30.7302 26.5579 31.4286 24.7999 31.4286H15.1999C11.5427 31.4286 8.57129 28.4571 8.57129 24.8V15.2C8.57129 13.442 9.26965 11.756 10.5128 10.5129C11.7559 9.26978 13.4419 8.57141 15.1999 8.57141ZM14.9713 10.8571C13.8801 10.8571 12.8336 11.2906 12.0621 12.0622C11.2905 12.8338 10.857 13.8802 10.857 14.9714V25.0286C10.857 27.3028 12.697 29.1428 14.9713 29.1428H25.0284C26.1196 29.1428 27.1661 28.7094 27.9377 27.9378C28.7093 27.1662 29.1427 26.1197 29.1427 25.0286V14.9714C29.1427 12.6971 27.3027 10.8571 25.0284 10.8571H14.9713ZM25.9999 12.5714C26.3787 12.5714 26.7421 12.7219 27.01 12.9898C27.2779 13.2577 27.4284 13.6211 27.4284 14C27.4284 14.3789 27.2779 14.7422 27.01 15.0101C26.7421 15.278 26.3787 15.4286 25.9999 15.4286C25.621 15.4286 25.2576 15.278 24.9897 15.0101C24.7218 14.7422 24.5713 14.3789 24.5713 14C24.5713 13.6211 24.7218 13.2577 24.9897 12.9898C25.2576 12.7219 25.621 12.5714 25.9999 12.5714ZM19.9999 14.2857C21.5154 14.2857 22.9688 14.8877 24.0405 15.9594C25.1121 17.031 25.7142 18.4845 25.7142 20C25.7142 21.5155 25.1121 22.969 24.0405 24.0406C22.9688 25.1122 21.5154 25.7143 19.9999 25.7143C18.4843 25.7143 17.0309 25.1122 15.9593 24.0406C14.8876 22.969 14.2856 21.5155 14.2856 20C14.2856 18.4845 14.8876 17.031 15.9593 15.9594C17.0309 14.8877 18.4843 14.2857 19.9999 14.2857ZM19.9999 16.5714C19.0906 16.5714 18.2185 16.9326 17.5755 17.5756C16.9325 18.2186 16.5713 19.0907 16.5713 20C16.5713 20.9093 16.9325 21.7814 17.5755 22.4244C18.2185 23.0673 19.0906 23.4286 19.9999 23.4286C20.9092 23.4286 21.7813 23.0673 22.4242 22.4244C23.0672 21.7814 23.4284 20.9093 23.4284 20C23.4284 19.0907 23.0672 18.2186 22.4242 17.5756C21.7813 16.9326 20.9092 16.5714 19.9999 16.5714Z" fill="#626262"/>
</svg>
