<svg width="261" height="45" viewBox="0 0 261 45" fill="none" xmlns="http://www.w3.org/2000/svg">
<rect width="261" height="45" rx="6" fill="#FEE500"/>
<g clip-path="url(#clip0_122_51)">
<path fill-rule="evenodd" clip-rule="evenodd" d="M23 14.1C18.0292 14.1 14 17.2129 14 21.0523C14 23.44 15.5584 25.5449 17.9315 26.7969L16.933 30.4445C16.8448 30.7668 17.2134 31.0237 17.4965 30.8369L21.8733 27.9482C22.2427 27.9838 22.6181 28.0046 23 28.0046C27.9705 28.0046 31.9999 24.8918 31.9999 21.0523C31.9999 17.2129 27.9705 14.1 23 14.1Z" fill="black"/>
</g>
<path d="M67.2149 16.215C67.1999 20.79 65.1149 23.85 61.2899 25.86L60.2999 24.75C62.2349 23.865 63.8549 22.44 64.7699 20.595L60.8549 21.015L60.6149 19.68L65.2799 19.335C65.4449 18.735 65.5649 18.12 65.6099 17.46H61.2899V16.215H67.2149ZM70.8299 14.82V20.04H72.8999V21.315H70.8299V28.185H69.2849V14.82H70.8299ZM80.1935 16.215C80.1785 20.79 78.0935 23.85 74.2685 25.86L73.2785 24.75C75.2135 23.865 76.8335 22.44 77.7485 20.595L73.8335 21.015L73.5935 19.68L78.2585 19.335C78.4235 18.735 78.5435 18.12 78.5885 17.46H74.2685V16.215H80.1935ZM83.8085 14.82V20.04H85.8785V21.315H83.8085V28.185H82.2635V14.82H83.8085ZM98.482 26.475H86.407V25.245H91.657V22.965C89.182 22.725 87.607 21.315 87.607 19.32C87.607 17.115 89.542 15.645 92.437 15.645C95.377 15.645 97.297 17.115 97.297 19.32C97.297 21.33 95.692 22.74 93.187 22.98V25.245H98.482V26.475ZM95.752 19.335C95.752 17.91 94.447 16.905 92.437 16.905C90.472 16.905 89.152 17.91 89.152 19.335C89.152 20.745 90.472 21.705 92.437 21.705C94.432 21.705 95.752 20.745 95.752 19.335ZM110.29 23.025H106.165V25.26H111.46V26.49H99.3855V25.26H104.635V23.025H100.93V18.705H108.37V16.98H100.885V15.75H109.9V19.95H102.475V21.78H110.29V23.025ZM119.409 26.52C118.194 26.52 117.129 26.19 116.559 25.8L116.844 24.645C117.384 24.99 118.389 25.26 119.154 25.26C120.669 25.26 121.494 24.615 121.494 23.43C121.494 22.245 120.624 21.72 119.229 21.705L118.239 21.69V20.505L119.124 20.49C120.369 20.475 121.164 19.875 121.164 18.855C121.164 17.73 120.444 17.325 119.274 17.325C118.494 17.325 117.729 17.64 117.114 17.94L116.919 16.755C117.549 16.365 118.704 16.05 119.664 16.05C121.524 16.05 122.754 16.965 122.754 18.585C122.754 19.815 122.019 20.58 120.879 20.97C122.169 21.225 123.114 21.945 123.114 23.49C123.114 25.32 121.689 26.52 119.409 26.52ZM135.956 21.915L135.326 23.19C133.286 22.86 131.066 21.555 130.376 20.175C129.686 21.585 127.556 22.8 125.426 23.16L124.781 21.945C126.866 21.75 129.206 20.46 129.581 18.84H125.471V17.595H135.296V18.84H131.216C131.591 20.445 134.021 21.78 135.956 21.915ZM136.421 26.505H124.346V25.26H129.596V22.5H131.126V25.26H136.421V26.505ZM128.171 16.53V15.3H132.581V16.53H128.171ZM147.705 14.82V18.69H149.67V19.98H147.705V24.51H146.16V14.82H147.705ZM148.095 27.78H139.155V23.535H140.7V26.535H148.095V27.78ZM143.955 22.125H137.745V15.885H143.955V22.125ZM142.41 20.91V17.1H139.29V20.91H142.41ZM158.973 27.555H157.518V21.27H156.183C156.048 23.505 155.148 25.29 153.333 25.29C151.338 25.29 150.453 23.13 150.453 20.595C150.453 18.075 151.338 15.93 153.333 15.93C155.163 15.93 156.063 17.73 156.183 19.995H157.518V15.075H158.973V27.555ZM161.568 28.185H160.098V14.82H161.568V28.185ZM154.758 20.61C154.758 18.675 154.308 17.25 153.348 17.25C152.403 17.25 151.938 18.675 151.938 20.61C151.938 22.545 152.403 23.94 153.348 23.94C154.308 23.94 154.758 22.545 154.758 20.61ZM178.232 28.185H176.702V14.82H178.232V28.185ZM175.367 23.94L174.452 25.095C173.312 24.36 171.887 22.71 171.392 21.24C170.942 22.83 169.607 24.51 168.137 25.395L167.192 24.27C169.262 22.92 170.582 20.715 170.582 18.165V15.975H172.172V18.075C172.172 20.64 173.417 22.71 175.367 23.94ZM180.366 16.95V15.675H187.401V16.95H184.731V16.98C184.731 18.945 186.216 20.4 187.761 20.91L186.921 22.14C185.796 21.69 184.521 20.64 183.936 19.38C183.546 20.7 182.121 21.99 180.771 22.5L179.871 21.315C181.746 20.61 183.156 19.02 183.156 17.025V16.95H180.366ZM181.866 23.355H190.596V28.2H189.051V24.57H181.866V23.355ZM192.546 19.335H190.581V22.65H189.036V14.82H190.581V18.06H192.546V19.335ZM200.169 22.68C200.169 24.285 198.894 25.53 196.989 25.53C195.069 25.53 193.779 24.33 193.779 22.68C193.779 21.09 195.069 19.83 196.989 19.83C198.894 19.83 200.169 21.045 200.169 22.68ZM198.654 22.68C198.654 21.735 197.949 21.09 196.989 21.09C196.014 21.09 195.324 21.735 195.324 22.68C195.324 23.61 196.014 24.27 196.989 24.27C198.024 24.27 198.654 23.61 198.654 22.68ZM200.844 19.185H193.074V17.94H200.844V19.185ZM194.964 16.86V15.6H199.014V16.86H194.964ZM203.559 14.82V20.31H205.629V21.6H203.559V28.185H202.014V14.82H203.559ZM217.168 28.185H215.638V14.82H217.168V28.185ZM213.073 16.23C212.983 20.37 210.913 23.565 207.058 25.68L206.098 24.51C209.173 23.1 211.168 20.295 211.423 17.49H206.878V16.23H213.073Z" fill="black" fill-opacity="0.85"/>
<defs>
<clipPath id="clip0_122_51">
<rect width="17.9999" height="18" fill="white" transform="translate(14 13.5)"/>
</clipPath>
</defs>
</svg>
