<svg width="18" height="17" viewBox="0 0 18 17" fill="none" xmlns="http://www.w3.org/2000/svg">
<mask id="path-1-inside-1_155_1272" fill="white">
<path d="M1.38913 0.888889V0H0.500244V0.888889H1.38913ZM9.64958 10.4062C9.81722 10.5681 10.0418 10.6577 10.2748 10.6557C10.5079 10.6537 10.7308 10.5602 10.8956 10.3954C11.0604 10.2306 11.1539 10.0076 11.156 9.77458C11.158 9.54151 11.0684 9.31698 10.9065 9.14933L9.64958 10.4062ZM2.27802 8V0.888889H0.500244V8H2.27802ZM1.38913 1.77778H8.50024V0H1.38913V1.77778ZM0.760689 1.51733L9.64958 10.4062L10.9065 9.14933L2.01758 0.260444L0.760689 1.51733Z"/>
</mask>
<path d="M1.38913 0.888889V0H0.500244V0.888889H1.38913ZM9.64958 10.4062C9.81722 10.5681 10.0418 10.6577 10.2748 10.6557C10.5079 10.6537 10.7308 10.5602 10.8956 10.3954C11.0604 10.2306 11.1539 10.0076 11.156 9.77458C11.158 9.54151 11.0684 9.31698 10.9065 9.14933L9.64958 10.4062ZM2.27802 8V0.888889H0.500244V8H2.27802ZM1.38913 1.77778H8.50024V0H1.38913V1.77778ZM0.760689 1.51733L9.64958 10.4062L10.9065 9.14933L2.01758 0.260444L0.760689 1.51733Z" fill="white"/>
<path d="M10.1994 8.44223L8.94247 9.69911L10.3567 11.1133L11.6136 9.85644L10.1994 8.44223ZM1.38913 0.888889V2.88889H3.38913V0.888889H1.38913ZM0.500244 0V-2H-1.49976V0H0.500244ZM9.64958 10.4062L8.23536 11.8204L8.24765 11.8327L8.26015 11.8448L9.64958 10.4062ZM10.9065 9.14933L12.345 7.75991L12.333 7.74741L12.3207 7.73512L10.9065 9.14933ZM2.27802 8V10H4.27802V8H2.27802ZM2.27802 0.888889H4.27802V-1.11111H2.27802V0.888889ZM0.500244 8H-1.49976V10H0.500244V8ZM1.38913 1.77778H-0.610867V3.77778H1.38913V1.77778ZM8.50024 1.77778V3.77778H10.5002V1.77778H8.50024ZM8.50024 0H10.5002V-2H8.50024V0ZM0.760689 1.51733L-0.653525 0.10312L-2.06774 1.51733L-0.653525 2.93155L0.760689 1.51733ZM2.01758 0.260444L3.43179 -1.15377L2.01758 -2.56798L0.603364 -1.15377L2.01758 0.260444ZM3.38913 0.888889V0H-0.610867V0.888889H3.38913ZM1.38913 -2H0.500244V2H1.38913V-2ZM-1.49976 0V0.888889H2.50024V0H-1.49976ZM0.500244 2.88889H1.38913V-1.11111H0.500244V2.88889ZM8.26015 11.8448C8.805 12.371 9.53474 12.6622 10.2922 12.6556L10.2574 8.65578C10.5488 8.65325 10.8294 8.76525 11.039 8.96764L8.26015 11.8448ZM10.2922 12.6556C11.0497 12.6491 11.7742 12.3452 12.3099 11.8096L9.48142 8.98118C9.68743 8.77517 9.96611 8.65832 10.2574 8.65578L10.2922 12.6556ZM12.3099 11.8096C12.8455 11.274 13.1493 10.5494 13.1559 9.79196L9.15603 9.7572C9.15856 9.46587 9.27541 9.18719 9.48142 8.98118L12.3099 11.8096ZM13.1559 9.79196C13.1625 9.0345 12.8713 8.30476 12.345 7.75991L9.46789 10.5388C9.26549 10.3292 9.1535 10.0485 9.15603 9.7572L13.1559 9.79196ZM4.27802 8V0.888889H0.278022V8H4.27802ZM2.27802 -1.11111H0.500244V2.88889H2.27802V-1.11111ZM-1.49976 0.888889V8H2.50024V0.888889H-1.49976ZM0.500244 10H2.27802V6H0.500244V10ZM1.38913 3.77778H8.50024V-0.222222H1.38913V3.77778ZM10.5002 1.77778V0H6.50024V1.77778H10.5002ZM8.50024 -2H1.38913V2H8.50024V-2ZM-0.610867 0V1.77778H3.38913V0H-0.610867ZM-0.653525 2.93155L8.23536 11.8204L11.0638 8.99201L2.1749 0.10312L-0.653525 2.93155ZM12.3207 7.73512L3.43179 -1.15377L0.603364 1.67466L9.49225 10.5635L12.3207 7.73512ZM0.603364 -1.15377L-0.653525 0.10312L2.1749 2.93155L3.43179 1.67466L0.603364 -1.15377Z" fill="#2A2A2A" mask="url(#path-1-inside-1_155_1272)"/>
<path d="M2.27759 11.5556C2.27759 13.2178 2.27759 14.0481 2.63492 14.6667C2.86896 15.0721 3.20557 15.4087 3.61092 15.6427C4.22959 16.0001 5.05981 16.0001 6.72203 16.0001H11.1665C13.6803 16.0001 14.938 16.0001 15.7185 15.2187C16.4998 14.4383 16.4998 13.1805 16.4998 10.6667V6.22228C16.4998 4.56005 16.4998 3.72983 16.1425 3.11117C15.9084 2.70581 15.5718 2.3692 15.1665 2.13517C14.5478 1.77783 13.7176 1.77783 12.0554 1.77783" stroke="#2A2A2A" stroke-width="2" stroke-linecap="round"/>
</svg>
