<svg width="32" height="32" viewBox="0 0 32 32" fill="none" xmlns="http://www.w3.org/2000/svg">
<path fill-rule="evenodd" clip-rule="evenodd" d="M9.70711 8.29289C9.31658 7.90237 8.68342 7.90237 8.29289 8.29289C7.90237 8.68342 7.90237 9.31658 8.29289 9.70711L14.0858 15.5L8.29289 21.2929C7.90237 21.6834 7.90237 22.3166 8.29289 22.7071C8.68342 23.0976 9.31658 23.0976 9.70711 22.7071L15.5 16.9142L21.2929 22.7071C21.6834 23.0976 22.3166 23.0976 22.7071 22.7071C23.0976 22.3166 23.0976 21.6834 22.7071 21.2929L16.9142 15.5L22.7071 9.70711C23.0976 9.31658 23.0976 8.68342 22.7071 8.29289C22.3166 7.90237 21.6834 7.90237 21.2929 8.29289L15.5 14.0858L9.70711 8.29289Z" fill="white"/>
</svg>
