<svg width="44" height="44" viewBox="0 0 44 44" fill="none" xmlns="http://www.w3.org/2000/svg">
<rect width="44" height="44" rx="22" fill="#E1FFE6"/>
<path d="M16.2019 10.3875L17.4328 9.97474C18.5848 9.58833 19.8167 10.2135 20.3104 11.4352L21.2933 13.8688C21.7218 14.9284 21.4841 16.1752 20.7059 16.9504L18.5425 19.108C18.6758 20.3993 19.0887 21.6701 19.7813 22.9205C20.4399 24.1299 21.3223 25.1887 22.3767 26.0345L24.9778 25.1225C25.9629 24.7781 27.036 25.1753 27.6406 26.1077L29.0486 28.2798C29.7526 29.3646 29.6257 30.8598 28.7537 31.779L27.8189 32.7642C26.8886 33.7446 25.5606 34.101 24.3309 33.6978C21.4297 32.7474 18.7619 29.9262 16.3276 25.2341C13.8904 20.5341 13.0302 16.5468 13.7471 13.2724C14.0488 11.8948 14.9837 10.7967 16.2042 10.3875" fill="#00A72F"/>
</svg>
