<svg width="80" height="80" viewBox="0 0 80 80" fill="none" xmlns="http://www.w3.org/2000/svg">
<path d="M66.6667 44.2944H66.5167V44.4444V67.1481C66.5167 67.6175 66.1361 67.9981 65.6667 67.9981H61.7408C61.2713 67.9981 60.8908 67.6175 60.8908 67.1481V44.4444V44.2944H60.7408H45.926H45.776V44.4444V67.1481C45.776 67.6175 45.3954 67.9981 44.926 67.9981H14.3334C13.8639 67.9981 13.4834 67.6175 13.4834 67.1481V44.4444V44.2944H13.3334H9.88892C9.41947 44.2944 9.03892 43.9138 9.03892 43.4444V38.3241C9.03892 38.2682 9.04444 38.2124 9.05542 38.1575L12.3715 21.574C12.451 21.1767 12.7999 20.8907 13.205 20.8907H67.4919L70.9446 38.1575C70.9556 38.2124 70.9611 38.2682 70.9611 38.3241V43.4444C70.9611 43.9138 70.5806 44.2944 70.1111 44.2944H66.6667ZM19.2593 44.2944H19.1093V44.4444V62.2222V62.3722H19.2593H40H40.15V62.2222V44.4444V44.2944H40H19.2593ZM65.126 38.6685H65.3089L65.273 38.4891L62.9027 26.6372L62.8786 26.5166H62.7556H17.2445H17.1215L17.0974 26.6372L14.727 38.4891L14.6911 38.6685H14.8741H65.126ZM14.9648 12.8518C14.9648 12.3824 15.3454 12.0018 15.8148 12.0018H64.1852C64.6547 12.0018 65.0352 12.3824 65.0352 12.8518V16.7777C65.0352 17.2472 64.6547 17.6277 64.1852 17.6277H15.8148C15.3454 17.6277 14.9648 17.2472 14.9648 16.7777V12.8518Z" fill="#EEEEEE" stroke="white" stroke-width="0.3"/>
</svg>
