<svg width="44" height="44" viewBox="0 0 44 44" fill="none" xmlns="http://www.w3.org/2000/svg">
  <rect width="44" height="44" rx="22" fill="#EEEEEE"/>
  <g transform="translate(-1, -1.2)">
    <path d="M27.8485 24.1447C26.4045 25.5888 24.446 26.4 22.4038 26.4C20.3616 26.4 18.4031 25.5888 16.9591 24.1447C15.5151 22.7007 14.7038 20.7422 14.7038 18.7C14.7038 16.6578 15.5151 14.6993 16.9591 13.2553C18.4031 11.8112 20.3616 11 22.4038 11C24.446 11 26.4045 11.8112 27.8485 13.2553C29.2926 14.6993 30.1038 16.6578 30.1038 18.7C30.1038 20.7422 29.2926 22.7007 27.8485 24.1447Z" fill="#DFDFDF"/>
    <path d="M23 44C32.1127 44 39.5 40.5526 39.5 36.3C39.5 32.0474 32.1127 28.6 23 28.6C13.8873 28.6 6.5 32.0474 6.5 36.3C6.5 40.5526 13.8873 44 23 44Z" fill="#DFDFDF"/>
  </g>
</svg>