<!-- <svg width="44" height="44" viewBox="0 0 44 44" fill="none" xmlns="http://www.w3.org/2000/svg">
<mask id="mask0_838_1168" style="mask-type:luminance" maskUnits="userSpaceOnUse" x="12" y="24" width="20" height="10">
<path fill-rule="evenodd" clip-rule="evenodd" d="M12.6666 24.9141H31.1465V33.5171H12.6666V24.9141Z" fill="white"/>
</mask>
<g mask="url(#mask0_838_1168)">
<path fill-rule="evenodd" clip-rule="evenodd" d="M21.9077 26.6641C16.9365 26.6641 14.4165 27.5181 14.4165 29.2039C14.4165 30.9049 16.9365 31.7671 21.9077 31.7671C26.8777 31.7671 29.3965 30.9131 29.3965 29.2272C29.3965 27.5262 26.8777 26.6641 21.9077 26.6641ZM21.9077 33.5171C19.6222 33.5171 12.6665 33.5171 12.6665 29.2039C12.6665 25.3586 17.941 24.9141 21.9077 24.9141C24.1932 24.9141 31.1465 24.9141 31.1465 29.2272C31.1465 33.0726 25.8732 33.5171 21.9077 33.5171Z" fill="black"/>
</g>
<mask id="mask1_838_1168" style="mask-type:luminance" maskUnits="userSpaceOnUse" x="15" y="10" width="14" height="13">
<path fill-rule="evenodd" clip-rule="evenodd" d="M15.7114 10.3359H28.1015V22.7243H15.7114V10.3359Z" fill="white"/>
</mask>
<g mask="url(#mask1_838_1168)">
<path fill-rule="evenodd" clip-rule="evenodd" d="M21.9076 12.0019C19.4098 12.0019 17.3775 14.0331 17.3775 16.5309C17.3693 19.0206 19.3865 21.0506 21.8738 21.0599L21.9076 21.8929V21.0599C24.4043 21.0599 26.4355 19.0276 26.4355 16.5309C26.4355 14.0331 24.4043 12.0019 21.9076 12.0019ZM21.9076 22.7248H21.8703C18.4613 22.7143 15.6998 19.9341 15.7115 16.5274C15.7115 13.1149 18.4905 10.3359 21.9076 10.3359C25.3236 10.3359 28.1015 13.1149 28.1015 16.5309C28.1015 19.9469 25.3236 22.7248 21.9076 22.7248Z" fill="black"/>
</g>
</svg> -->
<svg width="44" height="44" viewBox="0 0 44 44" fill="none" xmlns="http://www.w3.org/2000/svg">
<rect width="44" height="44" rx="22" fill="#EEEEEE"/>
<path d="M27.8485 24.1447C26.4045 25.5888 24.446 26.4 22.4038 26.4C20.3616 26.4 18.4031 25.5888 16.9591 24.1447C15.5151 22.7007 14.7038 20.7422 14.7038 18.7C14.7038 16.6578 15.5151 14.6993 16.9591 13.2553C18.4031 11.8112 20.3616 11 22.4038 11C24.446 11 26.4045 11.8112 27.8485 13.2553C29.2926 14.6993 30.1038 16.6578 30.1038 18.7C30.1038 20.7422 29.2926 22.7007 27.8485 24.1447Z" fill="#CCCCCC"/>
<path d="M23 44C32.1127 44 39.5 40.5526 39.5 36.3C39.5 32.0474 32.1127 28.6 23 28.6C13.8873 28.6 6.5 32.0474 6.5 36.3C6.5 40.5526 13.8873 44 23 44Z" fill="#CCCCCC"/>
</svg>
