<svg width="15" height="15" viewBox="0 0 24 24" fill="none" xmlns="http://www.w3.org/2000/svg">
<g clip-path="url(#clip0_651_1274)">
<path d="M14.1214 12L23.561 2.56137C24.147 1.97541 24.147 1.02538 23.561 0.43947C22.975 -0.14649 22.025 -0.14649 21.4391 0.43947L12.0005 9.87905L2.56186 0.43947C1.9759 -0.14649 1.02587 -0.14649 0.439959 0.43947C-0.145955 1.02543 -0.146002 1.97545 0.439959 2.56137L9.87954 12L0.439959 21.4386C-0.146002 22.0246 -0.146002 22.9746 0.439959 23.5605C1.02592 24.1464 1.97594 24.1465 2.56186 23.5605L12.0005 14.1209L21.4391 23.5605C22.025 24.1465 22.975 24.1465 23.5609 23.5605C24.1469 22.9745 24.1469 22.0245 23.5609 21.4386L14.1214 12Z" fill="#E87567"/>
</g>
<defs>
<clipPath id="clip0_651_1274">
<rect width="24" height="24" fill="white"/>
</clipPath>
</defs>
</svg>
