<svg width="261" height="45" viewBox="0 0 261 45" fill="none" xmlns="http://www.w3.org/2000/svg">
<rect width="261" height="45" rx="22.5" fill="#FEE500"/>
<g clip-path="url(#clip0_122_101)">
<path fill-rule="evenodd" clip-rule="evenodd" d="M47 14.1C42.0292 14.1 38 17.2129 38 21.0523C38 23.44 39.5584 25.5449 41.9315 26.7969L40.933 30.4445C40.8448 30.7668 41.2134 31.0237 41.4965 30.8369L45.8733 27.9482C46.2427 27.9838 46.6181 28.0046 47 28.0046C51.9705 28.0046 55.9999 24.8918 55.9999 21.0523C55.9999 17.2129 51.9705 14.1 47 14.1Z" fill="black"/>
</g>
<path d="M71.2149 16.215C71.1999 20.79 69.1149 23.85 65.2899 25.86L64.2999 24.75C66.2349 23.865 67.8549 22.44 68.7699 20.595L64.8549 21.015L64.6149 19.68L69.2799 19.335C69.4449 18.735 69.5649 18.12 69.6099 17.46H65.2899V16.215H71.2149ZM74.8299 14.82V20.04H76.8999V21.315H74.8299V28.185H73.2849V14.82H74.8299ZM84.1935 16.215C84.1785 20.79 82.0935 23.85 78.2685 25.86L77.2785 24.75C79.2135 23.865 80.8335 22.44 81.7485 20.595L77.8335 21.015L77.5935 19.68L82.2585 19.335C82.4235 18.735 82.5435 18.12 82.5885 17.46H78.2685V16.215H84.1935ZM87.8085 14.82V20.04H89.8785V21.315H87.8085V28.185H86.2635V14.82H87.8085ZM102.482 26.475H90.407V25.245H95.657V22.965C93.182 22.725 91.607 21.315 91.607 19.32C91.607 17.115 93.542 15.645 96.437 15.645C99.377 15.645 101.297 17.115 101.297 19.32C101.297 21.33 99.692 22.74 97.187 22.98V25.245H102.482V26.475ZM99.752 19.335C99.752 17.91 98.447 16.905 96.437 16.905C94.472 16.905 93.152 17.91 93.152 19.335C93.152 20.745 94.472 21.705 96.437 21.705C98.432 21.705 99.752 20.745 99.752 19.335ZM114.29 23.025H110.165V25.26H115.46V26.49H103.385V25.26H108.635V23.025H104.93V18.705H112.37V16.98H104.885V15.75H113.9V19.95H106.475V21.78H114.29V23.025ZM123.409 26.52C122.194 26.52 121.129 26.19 120.559 25.8L120.844 24.645C121.384 24.99 122.389 25.26 123.154 25.26C124.669 25.26 125.494 24.615 125.494 23.43C125.494 22.245 124.624 21.72 123.229 21.705L122.239 21.69V20.505L123.124 20.49C124.369 20.475 125.164 19.875 125.164 18.855C125.164 17.73 124.444 17.325 123.274 17.325C122.494 17.325 121.729 17.64 121.114 17.94L120.919 16.755C121.549 16.365 122.704 16.05 123.664 16.05C125.524 16.05 126.754 16.965 126.754 18.585C126.754 19.815 126.019 20.58 124.879 20.97C126.169 21.225 127.114 21.945 127.114 23.49C127.114 25.32 125.689 26.52 123.409 26.52ZM139.956 21.915L139.326 23.19C137.286 22.86 135.066 21.555 134.376 20.175C133.686 21.585 131.556 22.8 129.426 23.16L128.781 21.945C130.866 21.75 133.206 20.46 133.581 18.84H129.471V17.595H139.296V18.84H135.216C135.591 20.445 138.021 21.78 139.956 21.915ZM140.421 26.505H128.346V25.26H133.596V22.5H135.126V25.26H140.421V26.505ZM132.171 16.53V15.3H136.581V16.53H132.171ZM151.705 14.82V18.69H153.67V19.98H151.705V24.51H150.16V14.82H151.705ZM152.095 27.78H143.155V23.535H144.7V26.535H152.095V27.78ZM147.955 22.125H141.745V15.885H147.955V22.125ZM146.41 20.91V17.1H143.29V20.91H146.41ZM162.973 27.555H161.518V21.27H160.183C160.048 23.505 159.148 25.29 157.333 25.29C155.338 25.29 154.453 23.13 154.453 20.595C154.453 18.075 155.338 15.93 157.333 15.93C159.163 15.93 160.063 17.73 160.183 19.995H161.518V15.075H162.973V27.555ZM165.568 28.185H164.098V14.82H165.568V28.185ZM158.758 20.61C158.758 18.675 158.308 17.25 157.348 17.25C156.403 17.25 155.938 18.675 155.938 20.61C155.938 22.545 156.403 23.94 157.348 23.94C158.308 23.94 158.758 22.545 158.758 20.61ZM182.232 28.185H180.702V14.82H182.232V28.185ZM179.367 23.94L178.452 25.095C177.312 24.36 175.887 22.71 175.392 21.24C174.942 22.83 173.607 24.51 172.137 25.395L171.192 24.27C173.262 22.92 174.582 20.715 174.582 18.165V15.975H176.172V18.075C176.172 20.64 177.417 22.71 179.367 23.94ZM184.366 16.95V15.675H191.401V16.95H188.731V16.98C188.731 18.945 190.216 20.4 191.761 20.91L190.921 22.14C189.796 21.69 188.521 20.64 187.936 19.38C187.546 20.7 186.121 21.99 184.771 22.5L183.871 21.315C185.746 20.61 187.156 19.02 187.156 17.025V16.95H184.366ZM185.866 23.355H194.596V28.2H193.051V24.57H185.866V23.355ZM196.546 19.335H194.581V22.65H193.036V14.82H194.581V18.06H196.546V19.335ZM204.169 22.68C204.169 24.285 202.894 25.53 200.989 25.53C199.069 25.53 197.779 24.33 197.779 22.68C197.779 21.09 199.069 19.83 200.989 19.83C202.894 19.83 204.169 21.045 204.169 22.68ZM202.654 22.68C202.654 21.735 201.949 21.09 200.989 21.09C200.014 21.09 199.324 21.735 199.324 22.68C199.324 23.61 200.014 24.27 200.989 24.27C202.024 24.27 202.654 23.61 202.654 22.68ZM204.844 19.185H197.074V17.94H204.844V19.185ZM198.964 16.86V15.6H203.014V16.86H198.964ZM207.559 14.82V20.31H209.629V21.6H207.559V28.185H206.014V14.82H207.559ZM221.168 28.185H219.638V14.82H221.168V28.185ZM217.073 16.23C216.983 20.37 214.913 23.565 211.058 25.68L210.098 24.51C213.173 23.1 215.168 20.295 215.423 17.49H210.878V16.23H217.073Z" fill="black" fill-opacity="0.85"/>
<defs>
<clipPath id="clip0_122_101">
<rect width="17.9999" height="18" fill="white" transform="translate(38 13.5)"/>
</clipPath>
</defs>
</svg>
